<?xml version="1.0" encoding="utf-8"?>
<!-- Generator: Adobe Illustrator 30.8.1, SVG Export Plug-In . SVG Version: 9.03 Build 0)  -->
<svg version="1.1" xmlns="http://www.w3.org/2000/svg" xmlns:xlink="http://www.w3.org/1999/xlink" x="0px" y="0px"
	 viewBox="0 0 385.429 96" style="enable-background:new 0 0 385.429 96;" xml:space="preserve"><metadata><?xpacket begin="" id="W5M0MpCehiHzreSzNTczkc9d"?><x:xmpmeta xmlns:x="adobe:ns:meta/" x:xmptk="XMP Core 6.0.0"><rdf:RDF xmlns:rdf="http://www.w3.org/1999/02/22-rdf-syntax-ns#"><rdf:Description rdf:about="" xmlns:xmp="http://ns.adobe.com/xap/1.0/" xmlns:xmpMM="http://ns.adobe.com/xap/1.0/mm/" xmlns:dc="http://purl.org/dc/elements/1.1/" xmlns:dcterms="http://purl.org/dc/terms/" xmpMM:DocumentID="xmp.did:cb9f5498-bb58-4572-8043-8c369e6bfb9b" xmpMM:InstanceID="xmp.iid:cb9f5498-bb58-4572-8043-8c369e6bfb9b" dcterms:provenance="https://cai-manifests.adobe.com/manifests/urn-c2pa-7bd9c807-acc8-42df-96a1-70566bc11c73-adobe"> </rdf:Description></rdf:RDF></x:xmpmeta>
<?xpacket end="w"?></metadata>
<g id="Layer_2">
	<rect x="458.66" y="-597.146" style="fill:#192F1F;" width="122.849" height="112.296"/>
	<path style="fill:#192F1F;" d="M702.262-483.691h-10.552c-31.01,0-56.148-25.138-56.148-56.148v0
		c0-31.01,25.138-56.148,56.148-56.148h10.552c31.01,0,56.148,25.138,56.148,56.148v0
		C758.41-508.829,733.271-483.691,702.262-483.691z"/>
</g>
<g id="Layer_1">
	<g>
		<g>
			<g>
				<g>
					<path style="fill:#C7F14B;" d="M45.262,51.473c0,6.927-7.003,11.799-17.737,11.799c-8.755,0-13.779-2.284-18.194-7.384v-9.135
						h0.152c5.101,6.699,10.125,9.896,17.661,9.896c5.938,0,10.353-1.751,10.353-5.938c0-10.429-26.796-0.837-26.796-18.499
						c0-8.145,6.166-12.332,16.443-12.332c8.145,0,12.332,2.207,16.748,7.384l-0.076,9.059H43.74
						c-5.177-6.699-8.678-9.896-16.215-9.896c-5.253,0-9.059,1.979-9.059,5.557C18.467,42.186,45.262,32.67,45.262,51.473z"/>
					<path style="fill:#C7F14B;" d="M90.027,42.947H56.684c0.456,9.516,6.014,13.855,13.017,13.855
						c7.612,0,12.941-3.197,18.042-9.896h0.152v9.135c-4.415,5.177-9.439,7.384-18.194,7.384c-11.419,0-21.011-7.155-21.011-21.848
						c0-14.844,9.972-21.772,20.935-21.772c10.658,0,19.64,6.394,20.402,18.803V42.947z M82.186,36.705
						c-1.523-7.384-5.862-10.581-12.256-10.581c-7.612,0-11.495,4.796-12.789,10.581H82.186z"/>
					<path style="fill:#C7F14B;" d="M139.36,76.214v6.319H99.165c-2.284,0-4.187-1.827-4.187-4.111c0-1.37,0.685-2.664,1.751-3.426
						l17.357-12.18c-10.277,0.99-20.859-6.09-20.859-21.087v-0.076c0-13.246,9.059-21.62,22.076-21.62h23.371v6.319h-9.592
						c4.492,3.045,7.384,8.145,7.384,15.301c0,9.668-4.263,15.301-11.495,20.706l-19.564,13.855H139.36z M100.992,41.729
						c0,9.972,6.471,16.671,13.855,16.671c10.049,0,14.236-7.384,14.236-16.671l5.557-0.076h-5.557
						c0-9.973-6.319-14.997-13.931-15.073c-7.689-0.076-14.16,5.024-14.16,15.073V41.729z"/>
				</g>
			</g>
			<g>
				<path style="fill:#FFFCFE;" d="M171.528,19.997v6.318h-9.973c-5.252,0-7.079,1.523-7.079,7.385v27.938h-7.385V33.7
					c0.229-8.907,4.035-13.703,12.941-13.703H171.528z"/>
				<path style="fill:#FFFCFE;" d="M213.094,42.225h-33.343c0.456,9.516,6.014,13.855,13.017,13.855
					c7.612,0,12.941-3.197,18.042-9.896h0.152v9.135c-4.415,5.177-9.439,7.384-18.194,7.384c-11.419,0-21.011-7.156-21.011-21.848
					c0-14.844,9.972-21.772,20.935-21.772c10.658,0,19.64,6.394,20.402,18.803V42.225z M205.253,35.983
					c-1.523-7.384-5.862-10.581-12.256-10.581c-7.612,0-11.495,4.796-12.789,10.581H205.253z"/>
				<path style="fill:#FFFCFE;" d="M260.372,40.703c0,14.464-9.592,21.696-20.174,21.696c-6.318,0-12.028-2.512-15.682-7.536V78.69
					h-7.384V40.703c0-14.311,10.048-21.619,21.315-21.619C249.942,19.083,260.372,26.239,260.372,40.703z M238.447,25.63
					c-7.536,0.076-13.931,5.1-13.931,15.073c0,10.125,6.699,15.073,14.236,15.073c7.46,0,13.855-5.101,13.855-15.073
					C252.607,30.578,246.136,25.554,238.447,25.63z"/>
				<path style="fill:#FFFCFE;" d="M307.193,40.855c0,13.094-8.298,21.772-21.848,21.772c-13.474,0-21.772-8.678-21.772-21.772
					c0-13.17,8.297-21.848,21.772-21.848C298.895,19.007,307.193,27.685,307.193,40.855z M299.428,40.855
					c0-9.668-5.329-14.997-14.083-14.997c-8.678,0-14.007,5.329-14.007,14.997c0,9.592,5.329,14.997,14.007,14.997
					C294.099,55.852,299.428,50.447,299.428,40.855z"/>
				<path style="fill:#FFFCFE;" d="M336.048,19.997v6.318h-9.973c-5.253,0-7.08,1.523-7.08,7.385v27.938h-7.384V33.7
					c0.229-8.907,4.035-13.703,12.941-13.703H336.048z"/>
			</g>
			<g>
				<path style="fill:#FFFCFE;" d="M341.822,20.086v6.213h11.052c1.951,0,3.523,1.62,3.523,3.608v31.292h7.046v-34.9h14.651v-6.213
					H341.822z"/>
			</g>
		</g>
	</g>
	<g>
		<g>
			<g>
				<g>
					<path style="fill:#C7F14B;" d="M498.724-543.998c0,5.088-5.144,8.666-13.027,8.666c-6.43,0-10.12-1.677-13.363-5.423v-6.709
						h0.112c3.746,4.92,7.436,7.268,12.971,7.268c4.361,0,7.604-1.286,7.604-4.361c0-7.66-19.68-0.615-19.68-13.586
						c0-5.982,4.529-9.057,12.077-9.057c5.982,0,9.057,1.621,12.3,5.423l-0.056,6.653h-0.056c-3.802-4.92-6.374-7.268-11.909-7.268
						c-3.858,0-6.653,1.453-6.653,4.081C479.044-550.82,498.724-557.808,498.724-543.998z"/>
					<path style="fill:#C7F14B;" d="M531.601-550.26h-24.489c0.335,6.989,4.417,10.176,9.561,10.176
						c5.591,0,9.505-2.348,13.251-7.268h0.112v6.709c-3.243,3.802-6.933,5.423-13.362,5.423c-8.386,0-15.431-5.255-15.431-16.046
						c0-10.902,7.324-15.99,15.375-15.99c7.827,0,14.425,4.696,14.984,13.81V-550.26z M525.842-554.845
						c-1.118-5.423-4.305-7.772-9.002-7.772c-5.591,0-8.442,3.522-9.393,7.772H525.842z"/>
					<path style="fill:#C7F14B;" d="M567.833-525.828v4.641h-29.521c-1.677,0-3.075-1.342-3.075-3.019
						c0-1.006,0.503-1.957,1.286-2.516l12.748-8.946c-7.548,0.727-15.32-4.473-15.32-15.487v-0.056
						c0-9.729,6.653-15.879,16.214-15.879h17.164v4.641h-7.045c3.299,2.236,5.423,5.982,5.423,11.238
						c0,7.1-3.131,11.238-8.442,15.207l-14.369,10.176H567.833z M539.654-551.155c0,7.324,4.752,12.244,10.176,12.244
						c7.38,0,10.455-5.423,10.455-12.244l4.081-0.056h-4.081c0-7.324-4.641-11.014-10.232-11.07
						c-5.647-0.056-10.399,3.69-10.399,11.07V-551.155z"/>
				</g>
			</g>
			<g>
				<g>
					<path style="fill:#FFFCFE;" d="M479.581-529.913v1.633h-2.578c-1.358,0-1.83,0.394-1.83,1.909v7.223h-1.909v-7.223
						c0.059-2.303,1.043-3.543,3.346-3.543H479.581z"/>
					<path style="fill:#FFFCFE;" d="M490.328-524.167h-8.62c0.118,2.46,1.555,3.582,3.365,3.582c1.968,0,3.346-0.827,4.664-2.558
						h0.039v2.362c-1.141,1.338-2.44,1.909-4.704,1.909c-2.952,0-5.432-1.85-5.432-5.648c0-3.838,2.578-5.629,5.412-5.629
						c2.755,0,5.078,1.653,5.274,4.861V-524.167z M488.3-525.78c-0.394-1.909-1.515-2.736-3.169-2.736
						c-1.968,0-2.972,1.24-3.306,2.736H488.3z"/>
					<path style="fill:#FFFCFE;" d="M502.55-524.56c0,3.739-2.48,5.609-5.216,5.609c-1.633,0-3.11-0.649-4.054-1.948v6.16h-1.909
						v-9.821c0-3.7,2.598-5.589,5.511-5.589C499.854-530.15,502.55-528.3,502.55-524.56z M496.882-528.457
						c-1.948,0.02-3.602,1.319-3.602,3.897c0,2.618,1.732,3.897,3.68,3.897c1.929,0,3.582-1.319,3.582-3.897
						C500.543-527.178,498.87-528.477,496.882-528.457z"/>
					<path style="fill:#FFFCFE;" d="M514.655-524.521c0,3.385-2.145,5.629-5.648,5.629c-3.484,0-5.629-2.244-5.629-5.629
						c0-3.405,2.145-5.648,5.629-5.648C512.51-530.169,514.655-527.926,514.655-524.521z M512.647-524.521
						c0-2.5-1.378-3.877-3.641-3.877c-2.244,0-3.621,1.378-3.621,3.877c0,2.48,1.378,3.877,3.621,3.877
						C511.27-520.644,512.647-522.041,512.647-524.521z"/>
					<path style="fill:#FFFCFE;" d="M522.115-529.913v1.633h-2.578c-1.358,0-1.83,0.394-1.83,1.909v7.223h-1.909v-7.223
						c0.059-2.303,1.043-3.543,3.346-3.543H522.115z"/>
				</g>
				<g>
					<path style="fill:#FFFCFE;" d="M523.608-529.89v1.606h2.857c0.504,0,0.911,0.419,0.911,0.933v8.09h1.822v-9.023h3.788v-1.606
						H523.608z"/>
				</g>
			</g>
		</g>
	</g>
	<g>
		<g>
			<path style="fill:#C7F14B;" d="M681.479-539.676c0,3.693-3.734,6.291-9.457,6.291c-4.668,0-7.347-1.218-9.701-3.937v-4.871h0.081
				c2.72,3.572,5.398,5.276,9.417,5.276c3.166,0,5.52-0.933,5.52-3.166c0-5.561-14.287-0.446-14.287-9.863
				c0-4.343,3.288-6.575,8.767-6.575c4.343,0,6.575,1.177,8.93,3.937l-0.041,4.83h-0.041c-2.76-3.572-4.627-5.276-8.645-5.276
				c-2.801,0-4.83,1.055-4.83,2.963C667.192-544.628,681.479-549.702,681.479-539.676z"/>
			<path style="fill:#C7F14B;" d="M705.346-544.222h-17.778c0.243,5.074,3.206,7.387,6.941,7.387c4.059,0,6.9-1.705,9.62-5.276
				h0.081v4.871c-2.354,2.76-5.033,3.937-9.701,3.937c-6.088,0-11.202-3.815-11.202-11.649c0-7.915,5.317-11.608,11.162-11.608
				c5.682,0,10.472,3.409,10.878,10.025V-544.222z M701.166-547.551c-0.812-3.937-3.125-5.642-6.535-5.642
				c-4.059,0-6.129,2.557-6.819,5.642H701.166z"/>
			<path style="fill:#C7F14B;" d="M731.65-526.485v3.369h-21.431c-1.218,0-2.232-0.974-2.232-2.192c0-0.731,0.365-1.421,0.934-1.826
				l9.254-6.494c-5.48,0.528-11.121-3.247-11.121-11.243v-0.041c0-7.063,4.83-11.527,11.771-11.527h12.461v3.369h-5.114
				c2.395,1.623,3.937,4.343,3.937,8.158c0,5.155-2.273,8.158-6.129,11.04l-10.431,7.387H731.65z M711.193-544.872
				c0,5.317,3.45,8.889,7.387,8.889c5.358,0,7.59-3.937,7.59-8.889l2.963-0.041h-2.963c0-5.317-3.369-7.996-7.428-8.037
				c-4.1-0.041-7.55,2.679-7.55,8.037V-544.872z"/>
		</g>
	</g>
	<g>
		<g>
			<path style="fill:#FFFCFE;" d="M666.34-530.593v1.193h-1.883c-0.992,0-1.337,0.288-1.337,1.394v5.276h-1.395v-5.276
				c0.043-1.682,0.762-2.588,2.444-2.588H666.34z"/>
			<path style="fill:#FFFCFE;" d="M674.189-526.395h-6.297c0.086,1.797,1.136,2.616,2.458,2.616c1.438,0,2.444-0.604,3.407-1.869
				h0.029v1.725c-0.834,0.978-1.783,1.394-3.436,1.394c-2.156,0-3.968-1.351-3.968-4.126c0-2.803,1.883-4.111,3.953-4.111
				c2.013,0,3.709,1.207,3.853,3.551V-526.395z M672.708-527.574c-0.288-1.394-1.107-1.998-2.314-1.998
				c-1.438,0-2.171,0.906-2.415,1.998H672.708z"/>
			<path style="fill:#FFFCFE;" d="M683.117-526.683c0,2.731-1.811,4.097-3.81,4.097c-1.193,0-2.271-0.474-2.961-1.423v4.5h-1.394
				v-7.173c0-2.703,1.898-4.083,4.025-4.083C681.148-530.765,683.117-529.414,683.117-526.683z M678.977-529.529
				c-1.423,0.014-2.631,0.963-2.631,2.846c0,1.912,1.265,2.846,2.688,2.846c1.409,0,2.616-0.963,2.616-2.846
				C681.651-528.594,680.429-529.543,678.977-529.529z"/>
			<path style="fill:#FFFCFE;" d="M691.959-526.654c0,2.473-1.567,4.111-4.126,4.111c-2.545,0-4.111-1.639-4.111-4.111
				c0-2.487,1.567-4.126,4.111-4.126C690.392-530.78,691.959-529.141,691.959-526.654z M690.492-526.654
				c0-1.826-1.006-2.832-2.659-2.832c-1.639,0-2.645,1.006-2.645,2.832c0,1.811,1.006,2.832,2.645,2.832
				C689.486-523.822,690.492-524.842,690.492-526.654z"/>
			<path style="fill:#FFFCFE;" d="M697.408-530.593v1.193h-1.883c-0.992,0-1.337,0.288-1.337,1.394v5.276h-1.394v-5.276
				c0.043-1.682,0.762-2.588,2.444-2.588H697.408z"/>
		</g>
		<g>
			<path style="fill:#FFFCFE;" d="M698.498-530.576v1.173h2.087c0.368,0,0.665,0.306,0.665,0.681v5.909h1.331v-6.591h2.767v-1.173
				H698.498z"/>
		</g>
	</g>
</g>
</svg>
